<svg width="80" height="80" viewBox="0 0 80 80" fill="none" xmlns="http://www.w3.org/2000/svg">
<path d="M24.412 44.8C22.6713 42.0476 21.7535 38.8837 21.7603 35.6586C21.7603 25.8608 30.0705 17.92 40.3203 17.92C50.57 17.92 58.8802 25.8608 58.8802 35.6586C58.8871 38.8837 57.9692 42.0476 56.2285 44.8M47.2802 56L46.9786 57.4493C46.6538 59.033 46.4891 59.8237 46.1202 60.4509C45.5518 61.4176 44.6315 62.1457 43.5381 62.4938C42.8305 62.72 41.9906 62.72 40.3203 62.72C38.6499 62.72 37.81 62.72 37.1024 62.496C36.0086 62.1474 35.0882 61.4185 34.5203 60.4509C34.1514 59.8237 33.9867 59.033 33.6619 57.4493L33.3603 56M29.6088 51.7396C29.3954 51.1213 29.2887 50.81 29.3003 50.5591C29.3134 50.2997 29.4041 50.0495 29.5614 49.8388C29.7186 49.6281 29.9358 49.4659 30.1865 49.3719C30.4278 49.28 30.7665 49.28 31.4393 49.28H49.2012C49.8763 49.28 50.2127 49.28 50.454 49.3696C50.7051 49.4639 50.9224 49.6264 51.0798 49.8375C51.2371 50.0486 51.3275 50.2993 51.3402 50.5591C51.3518 50.81 51.2451 51.1191 51.0317 51.7396C50.6373 52.8842 50.4401 53.4576 50.1362 53.9213C49.5005 54.8904 48.504 55.5871 47.3522 55.8679C46.8 56 46.1782 56 44.9324 56H35.7081C34.4623 56 33.8382 56 33.2883 55.8656C32.1368 55.5854 31.1405 54.8895 30.5044 53.9213C30.2004 53.4576 30.0032 52.8842 29.6088 51.7396Z" stroke="white" stroke-width="3" stroke-linecap="round" stroke-linejoin="round"/>
<path d="M31.6204 35.2801L36.8404 40.3201V49.2801M49.0203 35.2801L43.8003 40.3201V49.2801M31.6204 36.9601C32.0818 36.9601 32.5244 36.7831 32.8507 36.468C33.177 36.153 33.3604 35.7257 33.3604 35.2801C33.3604 34.8345 33.177 34.4072 32.8507 34.0922C32.5244 33.7771 32.0818 33.6001 31.6204 33.6001C31.1589 33.6001 30.7163 33.7771 30.39 34.0922C30.0637 34.4072 29.8804 34.8345 29.8804 35.2801C29.8804 35.7257 30.0637 36.153 30.39 36.468C30.7163 36.7831 31.1589 36.9601 31.6204 36.9601ZM49.0203 36.9601C48.5589 36.9601 48.1163 36.7831 47.79 36.468C47.4637 36.153 47.2803 35.7257 47.2803 35.2801C47.2803 34.8345 47.4637 34.4072 47.79 34.0922C48.1163 33.7771 48.5589 33.6001 49.0203 33.6001C49.4818 33.6001 49.9244 33.7771 50.2507 34.0922C50.577 34.4072 50.7603 34.8345 50.7603 35.2801C50.7603 35.7257 50.577 36.153 50.2507 36.468C49.9244 36.7831 49.4818 36.9601 49.0203 36.9601Z" stroke="white" stroke-width="3" stroke-linecap="round" stroke-linejoin="round"/>
<circle cx="40" cy="40" r="39" stroke="white" stroke-width="2"/>
</svg>
