<svg xmlns="http://www.w3.org/2000/svg" width="3840.000000pt" height="2160.000000pt" version="1.0" viewBox="0 0 3840.000000 2160.000000"><path d="M3244 348.3c-.3.3-7.3.7-15.5.8-32.7.5-77.7 5.9-113.5 13.5-99.1 21.2-192 68.2-269.5 136.4-81.2 71.4-135.3 165.6-157 273-3 14.9-4.3 23.7-8 53-1.3 11-1.7 62.3-.6 78.5 9 127.2 63.1 240.2 157.1 328 106.3 99.4 235.3 150.6 402.3 159.6 23.3 1.3 31.6.9 77.7-3.2 137.6-12.2 248.5-57.1 344.6-139.6 90.5-77.6 151.3-182.8 170.8-295.3 11.8-68.2 9.1-137.2-7.8-203.3-17.7-68.6-50.7-134-96-190.2-27.9-34.5-65.2-70.4-101-96.9-90.6-67.3-197.3-104.7-321.6-112.5-20-1.3-61.3-2.5-62-1.8m42 169.1c24.1 1.6 54.8 7.2 80.1 14.7 72.6 21.3 146.6 66 191.6 115.8 44.5 49.3 69.8 104.4 79 172.1 2.6 19.1 2.5 69.4 0 89.5-8.6 66.9-30.4 120.5-68.4 168-10.5 13.2-35.1 38-48.6 49-24.4 19.9-52.2 37.5-83.6 53.1-44.8 22.1-85.1 33.3-138.1 38.4-9.6.9-62.3.5-71.5-.5-56.3-6.4-88.6-13.8-128-29-31.1-12.1-62.2-29.9-89-51.1-13.5-10.7-41.4-38.4-52.1-51.9-30.4-38-54.2-82.2-66.9-124.1-17.2-56.4-18.7-115.6-4.4-172.4 19.8-79.1 65.7-145.3 134.9-194.7 21-15 62.3-37.1 90-48.1 41.8-16.7 85.8-26.9 124.5-28.9 6.6-.3 12.1-.7 12.2-.7.6-.5 28.6.2 38.3.8M554.5 350.2c-81.7 3.6-173.5 24.8-243.4 56.2-45 20.3-83.8 45.1-127.2 81.2-18.5 15.4-55.5 52.1-70.1 69.4-38 45.2-65.7 92.3-85.2 144.7C18.1 730 8.4 769.2 5 797c-.6 5.2-1.3 10.5-1.5 11.8-3 18.7-3 84.1 0 111.2 7.8 70.2 24.2 128.4 52 184.5 58.3 117.4 159.4 201.5 303.8 252.6 94.9 33.6 201.9 43.1 330.7 29.3 97.7-10.4 195.7-38.3 275.5-78.4l15-7.5.3-99.3c.1-70.6-.1-99.2-.9-99.2-.6 0-23.2 11.2-50.2 24.9-27.1 13.8-54.8 27.5-61.7 30.6-69.4 31.5-152.5 53.1-224 58.2-20.1 1.5-73.1.8-91.5-1.1-62.3-6.5-122.1-23.5-173-49.1-36.3-18.2-62.8-37.6-90-65.6-69.8-72-101.7-172.8-86.9-274.9C213.3 750.6 250 681.7 306 630.2c89.7-82.3 199.8-114.2 348-100.6 99.8 9.1 198.3 39.7 299.1 93 14.3 7.5 22.7 11.4 24.8 11.4h3.1l-.2-98.2-.3-98.2-15.5-6.4c-135.7-55.6-291.1-86.3-410.5-81M1249.4 380.4c-.2.6-.3 221.6-.2 491.1l.3 490 379.3.3 379.2.2v-172l-280.2-.2-280.3-.3-.3-405.1-.2-405h-98.6c-68.7 0-98.7.3-99 1M2248.5 380.9c-.3.2-.5 221.1-.5 490.8V1362h198l-.2-490.8-.3-490.7-98.3-.1c-54 0-98.5.2-98.7.5M907.5 1601.6c-22.1 2.4-42.6 9.3-57.6 19.4-9.1 6.1-21.6 19.3-27.2 28.6-17.6 29.6-19.6 73.2-4.7 104 16.7 34.6 51.9 55.2 97.5 57.1 61.7 2.6 106.7-27.1 119.2-78.8 1.4-5.8 1.8-11.5 1.8-26.4 0-16.8-.3-20-2.3-27.5-11.1-40.5-39.7-65.9-84.3-74.5-8.2-1.6-34.4-2.7-42.4-1.9m31.4 24.9c18.9 3.1 33.3 9.9 45.4 21.4 18 17.2 25.9 39.9 23.5 67.3-2.4 27.3-17.8 50.3-41.8 62.3-14 7-25.7 9.5-43.9 9.5-14.8 0-27.1-2.2-38-6.9-25.8-11-41.8-31.8-46.2-60.4-1.6-9.9-.5-28.3 2.1-37.5 8.3-29.5 32-50.2 63-55.2 4.1-.6 8.2-1.3 9-1.5 3.5-.8 19.6-.1 26.9 1M1797 1602.5c-9 1.8-18 4.9-28 9.8-14 6.8-23.4 17.7-29 33.7-1.9 5.3-2.3 8.6-2.4 18 0 15.4 2.1 20.8 11.3 30.1 11.9 11.9 24.6 16.3 65.1 22.4 28.8 4.3 40.8 6.7 48.3 9.5 12.5 4.7 19.3 13.1 18.3 22.4-.8 7.7-5.1 15.3-13 23.2-7.7 7.6-12.3 10.2-24.3 13.6-6.4 1.9-10.2 2.3-21.3 2.2-11.9 0-14.4-.3-21.5-2.7-4.4-1.4-10.9-4.3-14.5-6.4-9-5.3-20.5-17-27-27.6l-5.3-8.7H1729v3.3c0 1.9.9 6.9 2 11.2 6.8 26.4 23.2 41.5 54 49.4 28.5 7.3 55.2 6.5 80.9-2.3 28.3-9.8 42.1-27.3 42.3-53.6.2-16.4-3.5-26.6-12.8-35.7-9.7-9.4-23.9-14.6-53.9-19.8-21.5-3.7-44.2-8.3-49.9-10-7.3-2.2-12.7-5.8-18.4-12-6.3-6.9-8-11.7-6.3-17.7 2.8-9.6 12-20.1 21.4-24.3 28.1-12.9 63.1-2.9 82.7 23.4l5.3 7.1h12.2c12.1 0 12.1 0 14.9-2.9l2.8-2.9-9.5-14.4c-5.2-7.8-11.4-16.1-13.8-18.3-8.4-7.7-29.4-16.8-45.9-19.9-9.9-1.9-30.8-2-40-.1M2094.9 1602c-24.6 2.8-47.7 13.1-56.8 25.4-8.1 10.7-10.6 18.8-10.6 33.6.1 21 8.4 34.3 27 43.4 10.2 5 21.9 7.8 45 11 42.5 5.9 52.5 9.3 63.5 21.2 8 8.7 8.7 14.6 2.8 25.7-9.4 17.6-28.4 26.6-54.1 25.5-13.1-.6-23-3.5-34.2-10-8.9-5.2-22.8-19.2-27.5-27.6-5.8-10.4-4.1-9.5-17.3-8.7l-11.7.7v4.7c.1 13 6.4 28.8 15.1 38 18.5 19.4 60.1 30.1 95.9 24.6 41.5-6.3 65.3-26.2 67.7-56.7 1.5-19.3-6.6-35.3-22.6-44.8-11.4-6.7-20.1-9.2-56.1-15.6-30.5-5.4-42.4-8.3-48.3-11.7-6.3-3.7-14.5-13-15.3-17.3-1.9-10.2 9.2-27.2 21.3-33 12-5.6 31.9-6.9 46.8-3 16.4 4.4 30.8 14.9 37.3 27.3l3.3 6.3h25.9v-4.3c-.1-15.6-11.4-33.4-26.5-41.4-19.2-10.1-49.1-15.7-70.6-13.3M2583.5 1601.6c-50.4 5.5-84.4 31.7-95.4 73.7-6.1 23.3-4.7 50.7 3.5 72.2 12.3 31.8 38.4 52.4 76.7 60.7 14.8 3.2 45.6 3.2 60.5 0 32.3-7 56.8-23.6 71.1-48.2 17.3-29.6 18.4-71.3 3-102.5-14.3-28.7-40.9-47.4-77.2-54.1-8.1-1.5-34.4-2.6-42.2-1.8m40.9 26.8c29.7 7.7 50.1 27.5 57.8 56.1 3 11.4 3 32.6 0 43.8-8.2 30-33.1 51.9-65.6 57.6-7.7 1.4-28.5 1.4-36.2 0-20.6-3.6-40.1-14.7-50.9-29.1-10.9-14.4-15.7-29.4-15.9-49.8-.1-16.6 1.7-25.8 7.9-38.5 11.4-23.5 33.7-38.6 62.7-42.4 11.5-1.5 29.3-.5 40.2 2.3M2844.5 1605.7c-1.6.2-4.7.9-6.8 1.4l-3.7 1V1805h25v-75.8c0-72.3.1-76 1.8-77.5 2.9-2.7 4.4-2 8.4 3.6 2 2.9 13.1 16.9 24.8 31.2 27.1 33.4 60.8 75.4 73.7 92 5.5 7.1 12.3 15.1 14.9 17.7 8.9 8.6 20.8 12 32.6 9.4l5.3-1.1v-197h-27l-.5 79.2-.5 79.3-48.6-60.8c-26.7-33.4-53.1-66.6-58.7-73.8s-12-14.8-14.3-16.9c-7.1-6.4-17.6-9.9-26.4-8.8M518.2 1705.2l.3 99.2h24l.5-41.9.5-42H585c49.7.1 57.5 1 67.7 7.8 10.4 7 14 18.3 15.8 50.7.6 9.7 3.3 25.1 4.6 26 .4.3 6.5.5 13.6.4 10.1-.1 12.7-.4 12.5-1.4-.2-.8-1-3.9-1.8-6.9-1.5-6-2.7-16.2-4.4-38.6-.6-7.7-1.7-16.7-2.6-20-2.5-9.4-7.9-18.7-14.6-25.1-4.7-4.5-5.7-5.9-4.5-6.6 7.6-4.2 16.9-14.1 21.1-22.4 5.6-11.3 6.8-23 3.7-38-3.5-17.1-10.9-27.7-23.5-33.9-12.5-6.2-15.3-6.4-88.9-6.5H518zm108.3-74.2c23.6 1 27.6 2 34.6 9 6 6 8.3 12.6 8.2 23.5-.1 14.8-6.3 24.9-18.1 29.7-5.6 2.3-6.2 2.3-55.9 2.6l-50.3.3V1631l22.8-.3c12.5-.1 26.3-.3 30.7-.4s17 .2 28 .7M1157.7 1606.7c-.4.3-.7 44.7-.7 98.5v97.8h26v-89h60.4c33.3 0 60.7-.3 60.9-.8.4-.6 0-5.1-1.9-19l-.5-4.2H1184v-60l62.3-.2 62.2-.3v-23l-75.1-.3c-41.3-.1-75.4.1-75.7.5M2341.5 1606.9l-5 .6v198l10.8.3 10.7.3V1606l-5.7.2c-3.2 0-8 .4-10.8.7M3223.1 1608.7c-5.3 11.6-86.1 195.3-86.1 195.8 0 .3 6.4.4 14.2.3l14.2-.3 5.4-12c2.9-6.6 8.7-19.5 12.9-28.8l7.5-16.7 49.1.2 49 .3 12.6 28.5 12.6 28.5 15.3.3c9.3.1 15.2-.1 15.2-.7 0-.5-6.9-16.4-15.4-35.3-34.6-77.3-70-156.5-71.3-159.6l-1.3-3.2h-32.7zm29.4 52.3c5.9 14 14 33.1 18 42.5 4 9.3 7.1 17.2 6.9 17.4-.3.3-17.1.5-37.4.5-27.6.1-37-.2-37-1.1 0-.6.9-3.3 2.1-6 2-4.6 31-76 33.1-81.3l1-2.5 1.3 2.5c.7 1.4 6.1 14 12 28M1439.7 1607.7c-.4.3-.7 44.9-.7 99v98.3h167v-23h-138v-69h131v-24h-132v-60h136.3l-.8-10.3c-.4-5.6-.9-10.5-1.2-11-.5-.9-160.7-1-161.6 0M3462 1706v99h150.1l-.3-11.8-.3-11.7-61.7-.3-61.8-.2v-174h-26zM235.8 1609.7l-9.8.4V1806h7.3c3.9 0 10.2-.3 14-.7l6.7-.6v-81.6l50.8-.3c45.5-.4 51.3-.6 56.2-2.2 18.9-6.2 31.5-20 35.5-39.1.8-3.9 1.5-12 1.5-18 0-23.3-6.2-37.7-19.8-46.3-6.7-4.3-13.7-6-29.2-7.2-12.1-.9-88.7-1.1-113.2-.3m107.2 21.4c16.4 2.6 25.8 11.8 27.9 27.1 2.7 19.5-5.9 34.9-22.3 40.1-6.9 2.1-8.3 2.2-50.6 2.2h-43.5l-.3-35.3-.2-35.2h41.2c24.1 0 44 .5 47.8 1.1"/></svg>